<svg width="52" height="53" viewBox="0 0 52 53" fill="none" xmlns="http://www.w3.org/2000/svg">
<g filter="url(#filter0_b_681_7340)">
<rect x="51.0526" y="52.4248" width="51.0526" height="52.4246" rx="25.5263" transform="rotate(-180 51.0526 52.4248)" fill="#DEDEDE"/>
<path d="M24.8133 20.0002C24.8835 19.9998 24.9532 20.0175 25.0181 20.0523C25.0829 20.0871 25.1418 20.1383 25.1912 20.2029C25.2913 20.3326 25.3476 20.5082 25.3476 20.6914C25.3476 20.8746 25.2913 21.0503 25.1912 21.1799L21.2907 26.2211L25.1912 31.2624C25.2857 31.3934 25.3371 31.5667 25.3346 31.7458C25.3322 31.9249 25.2761 32.0957 25.1781 32.2224C25.0801 32.349 24.9479 32.4215 24.8094 32.4247C24.6708 32.4279 24.5367 32.3614 24.4353 32.2393L20.1569 26.7096C20.0567 26.58 20.0005 26.4043 20.0005 26.2211C20.0005 26.0379 20.0567 25.8623 20.1569 25.7327L24.4353 20.2029C24.4847 20.1383 24.5436 20.0871 24.6085 20.0523C24.6734 20.0175 24.743 19.9998 24.8133 20.0002Z" fill="black"/>
<path d="M20.5347 25.5302H30.5177C30.6596 25.5302 30.7956 25.603 30.8959 25.7326C30.9962 25.8621 31.0526 26.0379 31.0526 26.2211C31.0526 26.4044 30.9962 26.5801 30.8959 26.7097C30.7956 26.8393 30.6596 26.9121 30.5177 26.9121H20.5347C20.3929 26.9121 20.2569 26.8393 20.1566 26.7097C20.0563 26.5801 19.9999 26.4044 19.9999 26.2211C19.9999 26.0379 20.0563 25.8621 20.1566 25.7326C20.2569 25.603 20.3929 25.5302 20.5347 25.5302Z" fill="black"/>
</g>
<defs>
<filter id="filter0_b_681_7340" x="-4" y="-4" width="59.0526" height="60.4248" filterUnits="userSpaceOnUse" color-interpolation-filters="sRGB">
<feFlood flood-opacity="0" result="BackgroundImageFix"/>
<feGaussianBlur in="BackgroundImageFix" stdDeviation="2"/>
<feComposite in2="SourceAlpha" operator="in" result="effect1_backgroundBlur_681_7340"/>
<feBlend mode="normal" in="SourceGraphic" in2="effect1_backgroundBlur_681_7340" result="shape"/>
</filter>
</defs>
</svg>
