<svg width="52" height="53" viewBox="0 0 52 53" fill="none" xmlns="http://www.w3.org/2000/svg">
<g filter="url(#filter0_b_681_7336)">
<rect x="0.947388" width="51.0526" height="52.4246" rx="25.5263" fill="#DEDEDE"/>
<path d="M27.1868 32.4246C27.1165 32.425 27.0469 32.4073 26.982 32.3725C26.9171 32.3377 26.8582 32.2865 26.8089 32.2219C26.7087 32.0923 26.6525 31.9166 26.6525 31.7334C26.6525 31.5502 26.7087 31.3745 26.8089 31.2449L30.7094 26.2037L26.8089 21.1624C26.7144 21.0314 26.663 20.8581 26.6654 20.679C26.6679 20.4999 26.724 20.3291 26.822 20.2025C26.92 20.0758 27.0522 20.0033 27.1907 20.0001C27.3293 19.9969 27.4633 20.0634 27.5647 20.1855L31.8432 25.7152C31.9433 25.8448 31.9996 26.0205 31.9996 26.2037C31.9996 26.3869 31.9433 26.5625 31.8432 26.6921L27.5647 32.2219C27.5154 32.2865 27.4565 32.3377 27.3916 32.3725C27.3267 32.4073 27.2571 32.425 27.1868 32.4246Z" fill="black"/>
<path d="M31.4653 26.8946H21.4823C21.3405 26.8946 21.2044 26.8218 21.1042 26.6922C21.0039 26.5627 20.9475 26.3869 20.9475 26.2037C20.9475 26.0204 21.0039 25.8447 21.1042 25.7151C21.2044 25.5855 21.3405 25.5127 21.4823 25.5127H31.4653C31.6072 25.5127 31.7432 25.5855 31.8435 25.7151C31.9438 25.8447 32.0001 26.0204 32.0001 26.2037C32.0001 26.3869 31.9438 26.5627 31.8435 26.6922C31.7432 26.8218 31.6072 26.8946 31.4653 26.8946Z" fill="black"/>
</g>
<defs>
<filter id="filter0_b_681_7336" x="-3.05261" y="-4" width="59.0526" height="60.4248" filterUnits="userSpaceOnUse" color-interpolation-filters="sRGB">
<feFlood flood-opacity="0" result="BackgroundImageFix"/>
<feGaussianBlur in="BackgroundImageFix" stdDeviation="2"/>
<feComposite in2="SourceAlpha" operator="in" result="effect1_backgroundBlur_681_7336"/>
<feBlend mode="normal" in="SourceGraphic" in2="effect1_backgroundBlur_681_7336" result="shape"/>
</filter>
</defs>
</svg>
