<svg width="25" height="25" viewBox="0 0 25 25" fill="none" xmlns="http://www.w3.org/2000/svg">
<path d="M5.0714 20.5356C4.95033 20.5377 4.83056 20.5105 4.72231 20.4562C4.61407 20.4019 4.52057 20.3222 4.44982 20.224C4.37907 20.1257 4.33316 20.0118 4.31602 19.8919C4.29888 19.772 4.31102 19.6498 4.3514 19.5356L5.9514 14.2856C5.60317 13.383 5.4268 12.4231 5.4314 11.4556C5.42981 10.3913 5.64059 9.33744 6.0514 8.35563C6.45439 7.41611 7.03116 6.56113 7.7514 5.83563C8.47523 5.10871 9.33485 4.5311 10.2814 4.13563C11.2603 3.72004 12.3129 3.50586 13.3764 3.50586C14.4399 3.50586 15.4925 3.72004 16.4714 4.13563C17.9055 4.74993 19.1287 5.77016 19.9905 7.07074C20.8522 8.37133 21.3148 9.89549 21.3214 11.4556C21.3152 13.5627 20.4779 15.5822 18.9914 17.0756C18.2659 17.7959 17.4109 18.3727 16.4714 18.7756C14.5806 19.5675 12.4579 19.6033 10.5414 18.8756L5.2914 20.4756C5.22118 20.5057 5.14715 20.5259 5.0714 20.5356ZM13.3714 5.03563C12.1048 5.04111 10.8676 5.41707 9.81209 6.11718C8.75661 6.81728 7.92904 7.81092 7.4314 8.97563C6.77025 10.5767 6.77025 12.3745 7.4314 13.9756C7.49098 14.1404 7.49098 14.3209 7.4314 14.4856L6.2014 18.6556L10.3514 17.3956C10.5162 17.3361 10.6966 17.3361 10.8614 17.3956C11.6538 17.7246 12.5034 17.894 13.3614 17.894C14.2194 17.894 15.069 17.7246 15.8614 17.3956C16.6422 17.0669 17.3504 16.5874 17.9456 15.9845C18.5408 15.3817 19.0111 14.6673 19.3297 13.8823C19.6484 13.0974 19.809 12.2573 19.8024 11.4102C19.7958 10.563 19.6222 9.72554 19.2914 8.94563C18.7948 7.78658 17.9695 6.79849 16.9173 6.10357C15.8651 5.40864 14.6323 5.03736 13.3714 5.03563Z" fill="black"/>
</svg>
