<svg width="25" height="25" viewBox="0 0 25 25" fill="none" xmlns="http://www.w3.org/2000/svg">
<path d="M18.6657 3.53564H7.09571C6.00571 3.53564 5.07571 4.31564 4.88571 5.39564L3.57571 12.8956C3.46571 13.5556 3.64571 14.2256 4.06571 14.7356C4.49571 15.2456 5.11571 15.5356 5.78571 15.5356H9.81571V18.2856C9.81571 19.8056 11.0457 21.0356 12.6457 21.0356C13.3457 21.0356 13.9757 20.6156 14.2557 19.9656L16.7957 14.0356H18.6757C19.9857 14.0356 21.0457 12.9756 21.0457 11.6656V5.89564C21.0457 4.59564 19.9857 3.53564 18.6757 3.53564H18.6657ZM15.5457 13.1356L12.8757 19.3856C12.8357 19.4756 12.7457 19.5456 12.5557 19.5456C11.8657 19.5456 11.3157 18.9856 11.3157 18.2956V14.0456H5.78571C5.55571 14.0456 5.35571 13.9556 5.21571 13.7856C5.06571 13.6156 5.01571 13.3956 5.05571 13.1656L6.36571 5.66564C6.42571 5.30564 6.73571 5.04564 7.10571 5.04564H15.5457V13.1356ZM19.5357 11.6656C19.5357 12.1456 19.1457 12.5356 18.6657 12.5356H17.0557V5.03564H18.6657C19.1457 5.03564 19.5357 5.42564 19.5357 5.89564V11.6656Z" fill="black"/>
</svg>
