<svg width="25" height="25" viewBox="0 0 25 25" fill="none" xmlns="http://www.w3.org/2000/svg">
<path d="M12.4285 2C18.1093 2 22.7143 6.605 22.7143 12.2857C22.7143 17.9664 18.1093 22.5714 12.4285 22.5714C6.74782 22.5714 2.14282 17.9664 2.14282 12.2857C2.14282 6.605 6.74782 2 12.4285 2ZM12.4285 3.71429C7.69454 3.71429 3.85711 7.55171 3.85711 12.2857C3.85711 17.0197 7.69454 20.8571 12.4285 20.8571C17.1625 20.8571 21 17.0197 21 12.2857C21 7.55171 17.1625 3.71429 12.4285 3.71429ZM13.0843 7.51014C14.9584 7.51014 16.1785 8.80529 16.1785 10.5573C16.1785 12.3016 14.9314 13.583 13.0363 13.583H11.2367V14.9056H13.9701V15.6757H11.2367V17.1616H9.73068V15.6757H8.38711V14.9056H9.73025V13.5834H8.38711V12.8064H9.73025V7.51014H13.0843ZM12.6685 8.78471H11.2371V12.3564H12.6613C13.9838 12.3564 14.6447 11.6613 14.6447 10.5637C14.6447 9.47343 13.9838 8.78514 12.6681 8.78514" fill="black"/>
</svg>
