<svg width="30" height="30" viewBox="0 0 30 30" fill="none" xmlns="http://www.w3.org/2000/svg">
<path d="M23.75 10.3125H15C14.7514 10.3125 14.5129 10.2137 14.3371 10.0379C14.1613 9.8621 14.0625 9.62364 14.0625 9.375C14.0625 9.12636 14.1613 8.8879 14.3371 8.71209C14.5129 8.53627 14.7514 8.4375 15 8.4375H23.75C23.9986 8.4375 24.2371 8.53627 24.4129 8.71209C24.5887 8.8879 24.6875 9.12636 24.6875 9.375C24.6875 9.62364 24.5887 9.8621 24.4129 10.0379C24.2371 10.2137 23.9986 10.3125 23.75 10.3125Z" fill="black"/>
<path d="M12.5 10.3125H6.25C6.00136 10.3125 5.7629 10.2137 5.58709 10.0379C5.41127 9.8621 5.3125 9.62364 5.3125 9.375C5.3125 9.12636 5.41127 8.8879 5.58709 8.71209C5.7629 8.53627 6.00136 8.4375 6.25 8.4375H12.5C12.7486 8.4375 12.9871 8.53627 13.1629 8.71209C13.3387 8.8879 13.4375 9.12636 13.4375 9.375C13.4375 9.62364 13.3387 9.8621 13.1629 10.0379C12.9871 10.2137 12.7486 10.3125 12.5 10.3125Z" fill="black"/>
<path d="M12.5 12.1875C12.2524 12.1843 12.0158 12.0845 11.8407 11.9093C11.6655 11.7342 11.5657 11.4976 11.5625 11.25V7.5C11.5625 7.25136 11.6613 7.0129 11.8371 6.83709C12.0129 6.66127 12.2514 6.5625 12.5 6.5625C12.7486 6.5625 12.9871 6.66127 13.1629 6.83709C13.3387 7.0129 13.4375 7.25136 13.4375 7.5V11.25C13.4343 11.4976 13.3345 11.7342 13.1593 11.9093C12.9842 12.0845 12.7476 12.1843 12.5 12.1875Z" fill="black"/>
<path d="M23.75 21.5625H15C14.7514 21.5625 14.5129 21.4637 14.3371 21.2879C14.1613 21.1121 14.0625 20.8736 14.0625 20.625C14.0625 20.3764 14.1613 20.1379 14.3371 19.9621C14.5129 19.7863 14.7514 19.6875 15 19.6875H23.75C23.9986 19.6875 24.2371 19.7863 24.4129 19.9621C24.5887 20.1379 24.6875 20.3764 24.6875 20.625C24.6875 20.8736 24.5887 21.1121 24.4129 21.2879C24.2371 21.4637 23.9986 21.5625 23.75 21.5625Z" fill="black"/>
<path d="M12.5 21.5625H6.25C6.00136 21.5625 5.7629 21.4637 5.58709 21.2879C5.41127 21.1121 5.3125 20.8736 5.3125 20.625C5.3125 20.3764 5.41127 20.1379 5.58709 19.9621C5.7629 19.7863 6.00136 19.6875 6.25 19.6875H12.5C12.7486 19.6875 12.9871 19.7863 13.1629 19.9621C13.3387 20.1379 13.4375 20.3764 13.4375 20.625C13.4375 20.8736 13.3387 21.1121 13.1629 21.2879C12.9871 21.4637 12.7486 21.5625 12.5 21.5625Z" fill="black"/>
<path d="M12.5 23.4375C12.2524 23.4343 12.0158 23.3345 11.8407 23.1593C11.6655 22.9842 11.5657 22.7476 11.5625 22.5V18.75C11.5625 18.5014 11.6613 18.2629 11.8371 18.0871C12.0129 17.9113 12.2514 17.8125 12.5 17.8125C12.7486 17.8125 12.9871 17.9113 13.1629 18.0871C13.3387 18.2629 13.4375 18.5014 13.4375 18.75V22.5C13.4343 22.7476 13.3345 22.9842 13.1593 23.1593C12.9842 23.3345 12.7476 23.4343 12.5 23.4375Z" fill="black"/>
<path d="M23.75 15.9375H20C19.7514 15.9375 19.5129 15.8387 19.3371 15.6629C19.1613 15.4871 19.0625 15.2486 19.0625 15C19.0625 14.7514 19.1613 14.5129 19.3371 14.3371C19.5129 14.1613 19.7514 14.0625 20 14.0625H23.75C23.9986 14.0625 24.2371 14.1613 24.4129 14.3371C24.5887 14.5129 24.6875 14.7514 24.6875 15C24.6875 15.2486 24.5887 15.4871 24.4129 15.6629C24.2371 15.8387 23.9986 15.9375 23.75 15.9375Z" fill="black"/>
<path d="M17.5 15.9375H6.25C6.00136 15.9375 5.7629 15.8387 5.58709 15.6629C5.41127 15.4871 5.3125 15.2486 5.3125 15C5.3125 14.7514 5.41127 14.5129 5.58709 14.3371C5.7629 14.1613 6.00136 14.0625 6.25 14.0625H17.5C17.7486 14.0625 17.9871 14.1613 18.1629 14.3371C18.3387 14.5129 18.4375 14.7514 18.4375 15C18.4375 15.2486 18.3387 15.4871 18.1629 15.6629C17.9871 15.8387 17.7486 15.9375 17.5 15.9375Z" fill="black"/>
<path d="M17.5 17.8125C17.2524 17.8093 17.0158 17.7095 16.8407 17.5343C16.6655 17.3592 16.5657 17.1226 16.5625 16.875V13.125C16.5625 12.8764 16.6613 12.6379 16.8371 12.4621C17.0129 12.2863 17.2514 12.1875 17.5 12.1875C17.7486 12.1875 17.9871 12.2863 18.1629 12.4621C18.3387 12.6379 18.4375 12.8764 18.4375 13.125V16.875C18.4343 17.1226 18.3345 17.3592 18.1593 17.5343C17.9842 17.7095 17.7476 17.8093 17.5 17.8125Z" fill="black"/>
</svg>
