<svg width="24" height="25" viewBox="0 0 24 25" fill="none" xmlns="http://www.w3.org/2000/svg">
<path d="M20.22 9.83564C19.79 9.32564 19.17 9.03564 18.5 9.03564H14.47V6.28564C14.47 4.76564 13.24 3.53564 11.64 3.53564C10.94 3.53564 10.31 3.95564 10.03 4.60564L7.49 10.5356H5.62C4.31 10.5356 3.25 11.5956 3.25 12.9056V18.6756C3.25 19.9756 4.32 21.0356 5.62 21.0356H17.18C18.27 21.0356 19.2 20.2556 19.39 19.1756L20.71 11.6756C20.82 11.0156 20.64 10.3456 20.21 9.83564H20.22ZM5.62 19.5356C5.14 19.5356 4.75 19.1456 4.75 18.6756V12.9056C4.75 12.4256 5.14 12.0356 5.62 12.0356H7.23V19.5356H5.62ZM17.92 18.9156C17.86 19.2756 17.55 19.5356 17.18 19.5356H8.74V11.4356L11.41 5.18564C11.45 5.09564 11.54 5.02564 11.73 5.02564C12.42 5.02564 12.97 5.58564 12.97 6.27564V10.5256H18.5C18.73 10.5256 18.93 10.6156 19.07 10.7856C19.21 10.9556 19.27 11.1756 19.23 11.4056L17.91 18.9056L17.92 18.9156Z" fill="black"/>
</svg>
