<svg width="25" height="24" viewBox="0 0 25 24" fill="none" xmlns="http://www.w3.org/2000/svg">
<path d="M19.5 4.25H5.5C5.03668 4.25263 4.59309 4.43784 4.26546 4.76546C3.93784 5.09309 3.75263 5.53668 3.75 6V18C3.75263 18.4633 3.93784 18.9069 4.26546 19.2345C4.59309 19.5622 5.03668 19.7474 5.5 19.75H19.5C19.9633 19.7474 20.4069 19.5622 20.7345 19.2345C21.0622 18.9069 21.2474 18.4633 21.25 18V6C21.2474 5.53668 21.0622 5.09309 20.7345 4.76546C20.4069 4.43784 19.9633 4.25263 19.5 4.25ZM5.5 5.75H19.5C19.5663 5.75 19.6299 5.77634 19.6768 5.82322C19.7237 5.87011 19.75 5.9337 19.75 6V7.54L12.5 11.16L5.25 7.54V6C5.25 5.9337 5.27634 5.87011 5.32322 5.82322C5.37011 5.77634 5.4337 5.75 5.5 5.75ZM19.5 18.25H5.5C5.4337 18.25 5.37011 18.2237 5.32322 18.1768C5.27634 18.1299 5.25 18.0663 5.25 18V9.21L12.16 12.67C12.2656 12.7228 12.382 12.7503 12.5 12.7503C12.618 12.7503 12.7344 12.7228 12.84 12.67L19.75 9.21V18C19.75 18.0663 19.7237 18.1299 19.6768 18.1768C19.6299 18.2237 19.5663 18.25 19.5 18.25Z" fill="black"/>
</svg>
