<svg width="25" height="24" viewBox="0 0 25 24" fill="none" xmlns="http://www.w3.org/2000/svg">
<path d="M12.5 12.25C11.7583 12.25 11.0333 12.0301 10.4166 11.618C9.79993 11.206 9.31928 10.6203 9.03545 9.93506C8.75163 9.24984 8.67736 8.49584 8.82206 7.76841C8.96675 7.04098 9.3239 6.3728 9.84835 5.84835C10.3728 5.3239 11.041 4.96675 11.7684 4.82206C12.4958 4.67736 13.2498 4.75162 13.9351 5.03545C14.6203 5.31928 15.206 5.79993 15.618 6.41661C16.0301 7.0333 16.25 7.75832 16.25 8.5C16.25 9.49456 15.8549 10.4484 15.1517 11.1517C14.4484 11.8549 13.4946 12.25 12.5 12.25ZM12.5 6.25C12.055 6.25 11.62 6.38196 11.25 6.62919C10.88 6.87643 10.5916 7.22783 10.4213 7.63896C10.251 8.0501 10.2064 8.5025 10.2932 8.93895C10.3801 9.37541 10.5943 9.77632 10.909 10.091C11.2237 10.4057 11.6246 10.62 12.061 10.7068C12.4975 10.7936 12.9499 10.749 13.361 10.5787C13.7722 10.4084 14.1236 10.12 14.3708 9.75003C14.618 9.38002 14.75 8.94501 14.75 8.5C14.75 7.90326 14.5129 7.33097 14.091 6.90901C13.669 6.48705 13.0967 6.25 12.5 6.25Z" fill="black"/>
<path d="M19.5 19.25C19.3019 19.2474 19.1126 19.1676 18.9725 19.0275C18.8324 18.8874 18.7526 18.6981 18.75 18.5C18.75 16.55 17.69 15.25 12.5 15.25C7.31 15.25 6.25 16.55 6.25 18.5C6.25 18.6989 6.17098 18.8897 6.03033 19.0303C5.88968 19.171 5.69891 19.25 5.5 19.25C5.30109 19.25 5.11032 19.171 4.96967 19.0303C4.82902 18.8897 4.75 18.6989 4.75 18.5C4.75 13.75 10.18 13.75 12.5 13.75C14.82 13.75 20.25 13.75 20.25 18.5C20.2474 18.6981 20.1676 18.8874 20.0275 19.0275C19.8874 19.1676 19.6981 19.2474 19.5 19.25Z" fill="black"/>
</svg>
