<svg width="25" height="24" viewBox="0 0 25 24" fill="none" xmlns="http://www.w3.org/2000/svg">
<path d="M18.9001 20.7498H18.6701C16.0789 20.4678 13.5894 19.5844 11.4001 18.1698C9.36627 16.8744 7.63947 15.151 6.3401 13.1198C4.92225 10.9248 4.03862 8.42799 3.7601 5.82977C3.72825 5.51986 3.75969 5.20672 3.85252 4.90934C3.94534 4.61195 4.09761 4.33653 4.3001 4.09977C4.49703 3.85984 4.74012 3.66187 5.01495 3.51758C5.28978 3.37329 5.59077 3.28562 5.9001 3.25977H8.5001C9.06321 3.26033 9.60756 3.46223 10.0348 3.829C10.4621 4.19578 10.7442 4.70324 10.8301 5.25977C10.925 5.97464 11.1029 6.67603 11.3601 7.34977C11.5165 7.77315 11.5488 8.2324 11.4532 8.6735C11.3575 9.11461 11.1379 9.51923 10.8201 9.83977L10.2101 10.4498C11.1705 11.966 12.4588 13.2474 13.9801 14.1998L14.5901 13.5998C14.9106 13.282 15.3153 13.0624 15.7564 12.9667C16.1975 12.871 16.6567 12.9033 17.0801 13.0598C17.7546 13.3146 18.4557 13.4924 19.1701 13.5898C19.7361 13.6749 20.2516 13.9636 20.6199 14.4018C20.9881 14.84 21.1838 15.3975 21.1701 15.9698V18.3698C21.1701 18.9939 20.9228 19.5927 20.4824 20.035C20.042 20.4773 19.4443 20.7271 18.8201 20.7298L18.9001 20.7498ZM8.5001 4.74977H6.1101C5.99275 4.75752 5.87819 4.789 5.77334 4.84228C5.6685 4.89556 5.57554 4.96955 5.5001 5.05977C5.42667 5.14428 5.3711 5.24277 5.33673 5.34932C5.30235 5.45587 5.2899 5.56827 5.3001 5.67977C5.54258 8.03654 6.33371 10.3038 7.6101 12.2998C8.78674 14.1464 10.3534 15.7131 12.2001 16.8898C14.1973 18.1796 16.4671 18.9875 18.8301 19.2498C18.953 19.2567 19.076 19.238 19.1913 19.195C19.3066 19.152 19.4118 19.0855 19.5001 18.9998C19.6593 18.8365 19.7489 18.6178 19.7501 18.3898V15.9998C19.7546 15.7893 19.6818 15.5845 19.5454 15.4242C19.409 15.2638 19.2185 15.1591 19.0101 15.1298C18.1839 15.0187 17.3724 14.8175 16.5901 14.5298C16.436 14.4721 16.2687 14.4594 16.1076 14.493C15.9465 14.5267 15.7983 14.6053 15.6801 14.7198L14.6801 15.7198C14.563 15.834 14.4121 15.9073 14.25 15.9289C14.0878 15.9506 13.923 15.9193 13.7801 15.8398C11.6463 14.634 9.88006 12.8712 8.6701 10.7398C8.58728 10.5977 8.55411 10.4322 8.57584 10.2692C8.59757 10.1062 8.67296 9.95513 8.7901 9.83977L9.7901 8.83977C9.90478 8.72379 9.98367 8.57727 10.0174 8.41769C10.051 8.2581 10.0381 8.0922 9.9801 7.93977C9.69129 7.15775 9.49006 6.34613 9.3801 5.51977C9.35529 5.30503 9.25142 5.10722 9.08875 4.96488C8.92607 4.82254 8.71622 4.74585 8.5001 4.74977Z" fill="black"/>
</svg>
