<svg width="25" height="25" viewBox="0 0 25 25" fill="none" xmlns="http://www.w3.org/2000/svg">
<path d="M15.4072 15.8755C15.2572 15.8794 15.1095 15.8383 14.9832 15.7574C14.8569 15.6765 14.7577 15.5596 14.6985 15.4218C14.6393 15.284 14.6227 15.1316 14.651 14.9843C14.6793 14.837 14.7511 14.7016 14.8572 14.5955L18.7772 10.7055L14.8572 6.81547C14.7167 6.67485 14.6378 6.48422 14.6378 6.28547C14.6378 6.08672 14.7167 5.8961 14.8572 5.75547C14.9978 5.61502 15.1884 5.53613 15.3872 5.53613C15.5859 5.53613 15.7765 5.61502 15.9172 5.75547L20.3772 10.1755C20.5176 10.3161 20.5965 10.5067 20.5965 10.7055C20.5965 10.9042 20.5176 11.0948 20.3772 11.2355L15.9172 15.6555C15.8517 15.725 15.7726 15.7804 15.6849 15.8182C15.5972 15.8561 15.5027 15.8755 15.4072 15.8755Z" fill="black"/>
<path d="M5.85718 19.0356C5.65907 19.033 5.46981 18.9531 5.32971 18.813C5.18962 18.6729 5.10977 18.4837 5.10718 18.2856V10.7056C5.10977 10.5075 5.18962 10.3182 5.32971 10.1781C5.46981 10.038 5.65907 9.95816 5.85718 9.95557H19.8572C20.0561 9.95557 20.2469 10.0346 20.3875 10.1752C20.5282 10.3159 20.6072 10.5067 20.6072 10.7056C20.6072 10.9045 20.5282 11.0952 20.3875 11.2359C20.2469 11.3765 20.0561 11.4556 19.8572 11.4556H6.60718V18.2856C6.60459 18.4837 6.52474 18.6729 6.38464 18.813C6.24455 18.9531 6.05528 19.033 5.85718 19.0356Z" fill="black"/>
</svg>
