<svg width="30" height="30" viewBox="0 0 30 30" fill="none" xmlns="http://www.w3.org/2000/svg">
<path d="M20 5.3125C20.5125 5.3125 20.9375 5.7375 20.9375 6.25V21.4875L22.4625 19.9625C22.825 19.6 23.425 19.6 23.7875 19.9625C23.975 20.15 24.0625 20.3875 24.0625 20.625C24.0625 20.8625 23.975 21.1 23.7875 21.2875L20.6625 24.4125C20.575 24.5 20.475 24.5625 20.3625 24.6125C20.1375 24.7125 19.875 24.7125 19.65 24.6125C19.5375 24.5625 19.4375 24.5 19.35 24.4125L16.225 21.2875C15.8625 20.925 15.8625 20.325 16.225 19.9625C16.5875 19.6 17.1875 19.6 17.55 19.9625L19.075 21.4875V6.25C19.075 5.7375 19.5 5.3125 20.0125 5.3125H20ZM10.9375 23.75V8.5125L12.4625 10.0375C12.825 10.4 13.425 10.4 13.7875 10.0375C13.975 9.85 14.0625 9.6125 14.0625 9.375C14.0625 9.1375 13.975 8.9 13.7875 8.7125L10.6625 5.5875C10.575 5.5 10.475 5.4375 10.3625 5.3875C10.1375 5.2875 9.875 5.2875 9.65 5.3875C9.5375 5.4375 9.4375 5.5 9.35 5.5875L6.225 8.7125C5.8625 9.075 5.8625 9.675 6.225 10.0375C6.5875 10.4 7.1875 10.4 7.55 10.0375L9.075 8.5125V23.75C9.075 24.2625 9.5 24.6875 10.0125 24.6875C10.525 24.6875 10.95 24.2625 10.95 23.75H10.9375Z" fill="black"/>
</svg>
