<svg width="24" height="25" viewBox="0 0 24 25" fill="none" xmlns="http://www.w3.org/2000/svg">
<path d="M12 19.0356C6.17 19.0356 3.43 12.8456 3.31 12.5856C3.27039 12.4906 3.25 12.3886 3.25 12.2856C3.25 12.1827 3.27039 12.0807 3.31 11.9856C3.43 11.7256 6.17 5.53564 12 5.53564C17.83 5.53564 20.57 11.7256 20.69 11.9856C20.7296 12.0807 20.75 12.1827 20.75 12.2856C20.75 12.3886 20.7296 12.4906 20.69 12.5856C20.57 12.8456 17.83 19.0356 12 19.0356ZM4.83 12.2856C5.42 13.4356 7.83 17.5356 12 17.5356C16.17 17.5356 18.58 13.4356 19.17 12.2856C18.58 11.1356 16.17 7.03564 12 7.03564C7.83 7.03564 5.42 11.1356 4.83 12.2856Z" fill="black"/>
<path d="M12 15.5356C11.3572 15.5356 10.7289 15.345 10.1944 14.9879C9.65994 14.6308 9.24338 14.1232 8.99739 13.5294C8.75141 12.9355 8.68705 12.282 8.81245 11.6516C8.93785 11.0212 9.24738 10.4421 9.7019 9.98755C10.1564 9.53303 10.7355 9.2235 11.366 9.09809C11.9964 8.97269 12.6499 9.03705 13.2437 9.28304C13.8376 9.52902 14.3452 9.94558 14.7023 10.48C15.0594 11.0145 15.25 11.6429 15.25 12.2856C15.2474 13.1468 14.9041 13.9719 14.2952 14.5808C13.6863 15.1898 12.8611 15.533 12 15.5356ZM12 10.5356C11.6539 10.5356 11.3155 10.6383 11.0278 10.8306C10.74 11.0229 10.5157 11.2962 10.3832 11.616C10.2508 11.9357 10.2161 12.2876 10.2836 12.6271C10.3512 12.9665 10.5178 13.2783 10.7626 13.5231C11.0073 13.7678 11.3191 13.9345 11.6586 14.002C11.9981 14.0695 12.3499 14.0349 12.6697 13.9024C12.9895 13.77 13.2628 13.5457 13.4551 13.2579C13.6474 12.9701 13.75 12.6318 13.75 12.2856C13.7474 11.8223 13.5622 11.3787 13.2345 11.0511C12.9069 10.7235 12.4633 10.5383 12 10.5356Z" fill="black"/>
</svg>
